<mxfile host="app.diagrams.net" modified="2023-09-22T12:15:51.705Z" agent="Mozilla/5.0 (Windows NT 10.0; Win64; x64) AppleWebKit/537.36 (KHTML, like Gecko) Chrome/116.0.0.0 Safari/537.36" etag="IM94NGF1v2K95dyCbzWj" version="21.7.2" type="device">
  <diagram id="7OCw_OR6Bwt0QJ5WrHrr" name="Página-1">
    <mxGraphModel dx="1434" dy="1190" grid="0" gridSize="10" guides="1" tooltips="1" connect="1" arrows="1" fold="1" page="0" pageScale="1" pageWidth="827" pageHeight="1169" math="0" shadow="0">
      <root>
        <mxCell id="0" />
        <mxCell id="1" parent="0" />
        <mxCell id="V9MNRKh6ys0s9TU7Nywh-62" style="edgeStyle=orthogonalEdgeStyle;rounded=0;orthogonalLoop=1;jettySize=auto;html=1;dashed=1;" parent="1" source="V9MNRKh6ys0s9TU7Nywh-43" target="V9MNRKh6ys0s9TU7Nywh-44" edge="1">
          <mxGeometry relative="1" as="geometry">
            <Array as="points">
              <mxPoint x="697" y="-90" />
              <mxPoint x="697" y="-90" />
            </Array>
          </mxGeometry>
        </mxCell>
        <mxCell id="V9MNRKh6ys0s9TU7Nywh-43" value="" style="rounded=0;whiteSpace=wrap;html=1;" parent="1" vertex="1">
          <mxGeometry x="414" y="-154" width="220" height="110" as="geometry" />
        </mxCell>
        <mxCell id="dptsvdmfRF1NZ_Uqbp2b-8" style="edgeStyle=orthogonalEdgeStyle;rounded=0;orthogonalLoop=1;jettySize=auto;html=1;entryX=0.5;entryY=0;entryDx=0;entryDy=0;entryPerimeter=0;dashed=1;" parent="1" source="V9MNRKh6ys0s9TU7Nywh-1" target="WOYcXEiJ4Ju05JUV5UKE-5" edge="1">
          <mxGeometry relative="1" as="geometry" />
        </mxCell>
        <mxCell id="V9MNRKh6ys0s9TU7Nywh-1" value="«WebService»&lt;br&gt;&lt;b&gt;SIA&lt;/b&gt;" style="html=1;dropTarget=0;fillColor=#dae8fc;strokeColor=#6c8ebf;" parent="1" vertex="1">
          <mxGeometry x="57" y="459" width="210" height="100" as="geometry" />
        </mxCell>
        <mxCell id="V9MNRKh6ys0s9TU7Nywh-2" value="" style="shape=module;jettyWidth=8;jettyHeight=4;" parent="V9MNRKh6ys0s9TU7Nywh-1" vertex="1">
          <mxGeometry x="1" width="20" height="20" relative="1" as="geometry">
            <mxPoint x="-27" y="7" as="offset" />
          </mxGeometry>
        </mxCell>
        <mxCell id="V9MNRKh6ys0s9TU7Nywh-9" value="&lt;p style=&quot;margin:0px;margin-top:6px;text-align:center;&quot;&gt;&lt;b&gt;DMZ-Backend&lt;/b&gt;&lt;/p&gt;&lt;hr&gt;&lt;p style=&quot;margin:0px;margin-left:8px;&quot;&gt;&lt;br&gt;&lt;/p&gt;" style="align=left;overflow=fill;html=1;dropTarget=0;" parent="1" vertex="1">
          <mxGeometry x="442" y="259.25" width="925" height="419.75" as="geometry" />
        </mxCell>
        <mxCell id="V9MNRKh6ys0s9TU7Nywh-10" value="" style="shape=component;jettyWidth=8;jettyHeight=4;" parent="V9MNRKh6ys0s9TU7Nywh-9" vertex="1">
          <mxGeometry x="1" width="20" height="20" relative="1" as="geometry">
            <mxPoint x="-24" y="4" as="offset" />
          </mxGeometry>
        </mxCell>
        <mxCell id="V9MNRKh6ys0s9TU7Nywh-11" value="Admin" style="shape=umlActor;verticalLabelPosition=bottom;verticalAlign=top;html=1;" parent="1" vertex="1">
          <mxGeometry x="464" y="-144" width="30" height="60" as="geometry" />
        </mxCell>
        <mxCell id="V9MNRKh6ys0s9TU7Nywh-24" style="edgeStyle=orthogonalEdgeStyle;rounded=0;orthogonalLoop=1;jettySize=auto;html=1;dashed=1;" parent="1" source="V9MNRKh6ys0s9TU7Nywh-14" target="V9MNRKh6ys0s9TU7Nywh-1" edge="1">
          <mxGeometry relative="1" as="geometry">
            <mxPoint x="290" y="430" as="targetPoint" />
            <Array as="points">
              <mxPoint x="290" y="508" />
            </Array>
          </mxGeometry>
        </mxCell>
        <mxCell id="V9MNRKh6ys0s9TU7Nywh-25" value="HTTP" style="edgeLabel;html=1;align=center;verticalAlign=middle;resizable=0;points=[];" parent="V9MNRKh6ys0s9TU7Nywh-24" vertex="1" connectable="0">
          <mxGeometry x="0.5216" y="1" relative="1" as="geometry">
            <mxPoint as="offset" />
          </mxGeometry>
        </mxCell>
        <mxCell id="V9MNRKh6ys0s9TU7Nywh-14" value="«WSImplement»&lt;br&gt;&lt;b&gt;AdapterService&lt;/b&gt;" style="html=1;dropTarget=0;fillColor=#fff2cc;strokeColor=#d6b656;" parent="1" vertex="1">
          <mxGeometry x="474" y="466" width="180" height="80" as="geometry" />
        </mxCell>
        <mxCell id="V9MNRKh6ys0s9TU7Nywh-15" value="" style="shape=module;jettyWidth=8;jettyHeight=4;" parent="V9MNRKh6ys0s9TU7Nywh-14" vertex="1">
          <mxGeometry x="1" width="20" height="20" relative="1" as="geometry">
            <mxPoint x="-27" y="7" as="offset" />
          </mxGeometry>
        </mxCell>
        <mxCell id="dptsvdmfRF1NZ_Uqbp2b-7" style="edgeStyle=orthogonalEdgeStyle;rounded=0;orthogonalLoop=1;jettySize=auto;html=1;entryX=1.006;entryY=0.663;entryDx=0;entryDy=0;entryPerimeter=0;dashed=1;" parent="1" source="V9MNRKh6ys0s9TU7Nywh-16" target="dptsvdmfRF1NZ_Uqbp2b-1" edge="1">
          <mxGeometry relative="1" as="geometry" />
        </mxCell>
        <mxCell id="V9MNRKh6ys0s9TU7Nywh-16" value="«WSImplement»&lt;br&gt;&lt;b&gt;AuthService&lt;/b&gt;" style="html=1;dropTarget=0;fillColor=#fff2cc;strokeColor=#d6b656;" parent="1" vertex="1">
          <mxGeometry x="470" y="330" width="180" height="80" as="geometry" />
        </mxCell>
        <mxCell id="V9MNRKh6ys0s9TU7Nywh-17" value="" style="shape=module;jettyWidth=8;jettyHeight=4;" parent="V9MNRKh6ys0s9TU7Nywh-16" vertex="1">
          <mxGeometry x="1" width="20" height="20" relative="1" as="geometry">
            <mxPoint x="-27" y="7" as="offset" />
          </mxGeometry>
        </mxCell>
        <mxCell id="V9MNRKh6ys0s9TU7Nywh-34" style="edgeStyle=orthogonalEdgeStyle;rounded=0;orthogonalLoop=1;jettySize=auto;html=1;dashed=1;" parent="1" source="V9MNRKh6ys0s9TU7Nywh-18" target="V9MNRKh6ys0s9TU7Nywh-16" edge="1">
          <mxGeometry relative="1" as="geometry">
            <Array as="points">
              <mxPoint x="763" y="409" />
              <mxPoint x="763" y="406" />
            </Array>
          </mxGeometry>
        </mxCell>
        <mxCell id="V9MNRKh6ys0s9TU7Nywh-35" value="TRUSTS" style="edgeLabel;html=1;align=center;verticalAlign=middle;resizable=0;points=[];" parent="V9MNRKh6ys0s9TU7Nywh-34" vertex="1" connectable="0">
          <mxGeometry x="-0.1737" y="1" relative="1" as="geometry">
            <mxPoint as="offset" />
          </mxGeometry>
        </mxCell>
        <mxCell id="LYIbnzxH0JPMt6LO6bNI-22" style="edgeStyle=orthogonalEdgeStyle;rounded=0;orthogonalLoop=1;jettySize=auto;html=1;entryX=0;entryY=0.5;entryDx=0;entryDy=0;entryPerimeter=0;dashed=1;" parent="1" source="V9MNRKh6ys0s9TU7Nywh-18" target="V9MNRKh6ys0s9TU7Nywh-21" edge="1">
          <mxGeometry relative="1" as="geometry" />
        </mxCell>
        <mxCell id="V9MNRKh6ys0s9TU7Nywh-18" value="«WSImplement»&lt;br&gt;&lt;b&gt;AireService&lt;/b&gt;" style="html=1;dropTarget=0;fillColor=#fff2cc;strokeColor=#d6b656;" parent="1" vertex="1">
          <mxGeometry x="876" y="369" width="180" height="80" as="geometry" />
        </mxCell>
        <mxCell id="V9MNRKh6ys0s9TU7Nywh-19" value="" style="shape=module;jettyWidth=8;jettyHeight=4;" parent="V9MNRKh6ys0s9TU7Nywh-18" vertex="1">
          <mxGeometry x="1" width="20" height="20" relative="1" as="geometry">
            <mxPoint x="-27" y="7" as="offset" />
          </mxGeometry>
        </mxCell>
        <mxCell id="V9MNRKh6ys0s9TU7Nywh-21" value="DatosDB&lt;br&gt;MySQL" style="shape=cylinder3;whiteSpace=wrap;html=1;boundedLbl=1;backgroundOutline=1;size=15;fillColor=#dae8fc;strokeColor=#6c8ebf;" parent="1" vertex="1">
          <mxGeometry x="992" y="479" width="60" height="80" as="geometry" />
        </mxCell>
        <mxCell id="V9MNRKh6ys0s9TU7Nywh-41" value="Calidad" style="shape=umlActor;verticalLabelPosition=bottom;verticalAlign=top;html=1;" parent="1" vertex="1">
          <mxGeometry x="544" y="-144" width="30" height="60" as="geometry" />
        </mxCell>
        <mxCell id="LYIbnzxH0JPMt6LO6bNI-8" style="edgeStyle=orthogonalEdgeStyle;rounded=0;orthogonalLoop=1;jettySize=auto;html=1;entryX=0.5;entryY=0;entryDx=0;entryDy=0;dashed=1;" parent="1" source="V9MNRKh6ys0s9TU7Nywh-44" target="LYIbnzxH0JPMt6LO6bNI-6" edge="1">
          <mxGeometry relative="1" as="geometry" />
        </mxCell>
        <mxCell id="LYIbnzxH0JPMt6LO6bNI-9" value="HTTP" style="edgeLabel;html=1;align=center;verticalAlign=middle;resizable=0;points=[];" parent="LYIbnzxH0JPMt6LO6bNI-8" vertex="1" connectable="0">
          <mxGeometry x="0.0642" relative="1" as="geometry">
            <mxPoint as="offset" />
          </mxGeometry>
        </mxCell>
        <mxCell id="LYIbnzxH0JPMt6LO6bNI-25" style="edgeStyle=orthogonalEdgeStyle;rounded=0;orthogonalLoop=1;jettySize=auto;html=1;entryX=0.009;entryY=0.367;entryDx=0;entryDy=0;entryPerimeter=0;dashed=1;" parent="1" source="V9MNRKh6ys0s9TU7Nywh-44" target="dN1lRDkk45qME87Hyz44-3" edge="1">
          <mxGeometry relative="1" as="geometry" />
        </mxCell>
        <mxCell id="V9MNRKh6ys0s9TU7Nywh-44" value="«Frontend»&lt;br&gt;&lt;b&gt;Angular&lt;/b&gt;" style="html=1;dropTarget=0;fillColor=#f8cecc;strokeColor=#b85450;" parent="1" vertex="1">
          <mxGeometry x="836" y="-130" width="180" height="80" as="geometry" />
        </mxCell>
        <mxCell id="V9MNRKh6ys0s9TU7Nywh-45" value="" style="shape=module;jettyWidth=8;jettyHeight=4;" parent="V9MNRKh6ys0s9TU7Nywh-44" vertex="1">
          <mxGeometry x="1" width="20" height="20" relative="1" as="geometry">
            <mxPoint x="-27" y="7" as="offset" />
          </mxGeometry>
        </mxCell>
        <mxCell id="WOYcXEiJ4Ju05JUV5UKE-3" style="edgeStyle=orthogonalEdgeStyle;rounded=0;orthogonalLoop=1;jettySize=auto;html=1;dashed=1;" parent="1" source="WOYcXEiJ4Ju05JUV5UKE-1" target="V9MNRKh6ys0s9TU7Nywh-14" edge="1">
          <mxGeometry relative="1" as="geometry" />
        </mxCell>
        <mxCell id="WOYcXEiJ4Ju05JUV5UKE-4" style="edgeStyle=orthogonalEdgeStyle;rounded=0;orthogonalLoop=1;jettySize=auto;html=1;dashed=1;" parent="1" source="WOYcXEiJ4Ju05JUV5UKE-1" target="V9MNRKh6ys0s9TU7Nywh-21" edge="1">
          <mxGeometry relative="1" as="geometry">
            <Array as="points">
              <mxPoint x="1017" y="600" />
            </Array>
          </mxGeometry>
        </mxCell>
        <mxCell id="WOYcXEiJ4Ju05JUV5UKE-1" value="«Process»&lt;br&gt;&lt;b&gt;CronJobs&lt;/b&gt;" style="html=1;dropTarget=0;fillColor=#fff2cc;strokeColor=#d6b656;" parent="1" vertex="1">
          <mxGeometry x="656" y="556" width="180" height="80" as="geometry" />
        </mxCell>
        <mxCell id="WOYcXEiJ4Ju05JUV5UKE-2" value="" style="shape=module;jettyWidth=8;jettyHeight=4;" parent="WOYcXEiJ4Ju05JUV5UKE-1" vertex="1">
          <mxGeometry x="1" width="20" height="20" relative="1" as="geometry">
            <mxPoint x="-27" y="7" as="offset" />
          </mxGeometry>
        </mxCell>
        <mxCell id="WOYcXEiJ4Ju05JUV5UKE-5" value="SIA&lt;br&gt;DB" style="shape=cylinder3;whiteSpace=wrap;html=1;boundedLbl=1;backgroundOutline=1;size=15;fillColor=#dae8fc;strokeColor=#6c8ebf;" parent="1" vertex="1">
          <mxGeometry x="132" y="610" width="60" height="80" as="geometry" />
        </mxCell>
        <mxCell id="dptsvdmfRF1NZ_Uqbp2b-13" style="edgeStyle=orthogonalEdgeStyle;rounded=0;orthogonalLoop=1;jettySize=auto;html=1;entryX=0.5;entryY=1;entryDx=0;entryDy=0;entryPerimeter=0;dashed=1;" parent="1" source="dptsvdmfRF1NZ_Uqbp2b-1" target="dptsvdmfRF1NZ_Uqbp2b-9" edge="1">
          <mxGeometry relative="1" as="geometry">
            <Array as="points">
              <mxPoint x="162" y="300" />
              <mxPoint x="162" y="300" />
            </Array>
          </mxGeometry>
        </mxCell>
        <mxCell id="dptsvdmfRF1NZ_Uqbp2b-1" value="«WSImplement»&lt;br&gt;&lt;b&gt;loginMA&lt;/b&gt;" style="html=1;dropTarget=0;fillColor=#dae8fc;strokeColor=#6c8ebf;" parent="1" vertex="1">
          <mxGeometry x="58" y="317" width="194" height="80" as="geometry" />
        </mxCell>
        <mxCell id="dptsvdmfRF1NZ_Uqbp2b-2" value="" style="shape=module;jettyWidth=8;jettyHeight=4;" parent="dptsvdmfRF1NZ_Uqbp2b-1" vertex="1">
          <mxGeometry x="1" width="20" height="20" relative="1" as="geometry">
            <mxPoint x="-27" y="7" as="offset" />
          </mxGeometry>
        </mxCell>
        <mxCell id="dptsvdmfRF1NZ_Uqbp2b-9" value="Adminis" style="shape=cylinder3;whiteSpace=wrap;html=1;boundedLbl=1;backgroundOutline=1;size=15;fillColor=#dae8fc;strokeColor=#6c8ebf;" parent="1" vertex="1">
          <mxGeometry x="132" y="175" width="60" height="80" as="geometry" />
        </mxCell>
        <mxCell id="LYIbnzxH0JPMt6LO6bNI-27" style="edgeStyle=orthogonalEdgeStyle;rounded=0;orthogonalLoop=1;jettySize=auto;html=1;entryX=1;entryY=0.5;entryDx=0;entryDy=0;dashed=1;" parent="1" source="dN1lRDkk45qME87Hyz44-3" target="LYIbnzxH0JPMt6LO6bNI-6" edge="1">
          <mxGeometry relative="1" as="geometry">
            <Array as="points">
              <mxPoint x="1468" y="99" />
            </Array>
          </mxGeometry>
        </mxCell>
        <mxCell id="dN1lRDkk45qME87Hyz44-3" value="&lt;p style=&quot;margin:0px;margin-top:6px;text-align:center;&quot;&gt;&lt;b&gt;Shiny&lt;/b&gt;&lt;/p&gt;" style="align=left;overflow=fill;html=1;dropTarget=0;" parent="1" vertex="1">
          <mxGeometry x="1239" y="-174" width="425" height="229" as="geometry" />
        </mxCell>
        <mxCell id="dN1lRDkk45qME87Hyz44-4" value="" style="shape=component;jettyWidth=8;jettyHeight=4;" parent="dN1lRDkk45qME87Hyz44-3" vertex="1">
          <mxGeometry x="1" width="20" height="20" relative="1" as="geometry">
            <mxPoint x="-24" y="4" as="offset" />
          </mxGeometry>
        </mxCell>
        <mxCell id="dN1lRDkk45qME87Hyz44-6" value="&amp;laquo;Annotation&amp;raquo;&lt;br/&gt;&lt;b&gt;Component&lt;/b&gt;" style="html=1;dropTarget=0;whiteSpace=wrap;" parent="1" vertex="1">
          <mxGeometry x="1254" y="-137" width="165" height="82" as="geometry" />
        </mxCell>
        <mxCell id="dN1lRDkk45qME87Hyz44-7" value="" style="shape=module;jettyWidth=8;jettyHeight=4;" parent="dN1lRDkk45qME87Hyz44-6" vertex="1">
          <mxGeometry x="1" width="20" height="20" relative="1" as="geometry">
            <mxPoint x="-27" y="7" as="offset" />
          </mxGeometry>
        </mxCell>
        <mxCell id="dN1lRDkk45qME87Hyz44-8" value="&amp;laquo;Annotation&amp;raquo;&lt;br/&gt;&lt;b&gt;Component&lt;/b&gt;" style="html=1;dropTarget=0;whiteSpace=wrap;" parent="1" vertex="1">
          <mxGeometry x="1478" y="-137" width="165" height="82" as="geometry" />
        </mxCell>
        <mxCell id="dN1lRDkk45qME87Hyz44-9" value="" style="shape=module;jettyWidth=8;jettyHeight=4;" parent="dN1lRDkk45qME87Hyz44-8" vertex="1">
          <mxGeometry x="1" width="20" height="20" relative="1" as="geometry">
            <mxPoint x="-27" y="7" as="offset" />
          </mxGeometry>
        </mxCell>
        <mxCell id="dN1lRDkk45qME87Hyz44-10" value="&amp;laquo;Annotation&amp;raquo;&lt;br/&gt;&lt;b&gt;Component&lt;/b&gt;" style="html=1;dropTarget=0;whiteSpace=wrap;" parent="1" vertex="1">
          <mxGeometry x="1254" y="-42" width="165" height="82" as="geometry" />
        </mxCell>
        <mxCell id="dN1lRDkk45qME87Hyz44-11" value="" style="shape=module;jettyWidth=8;jettyHeight=4;" parent="dN1lRDkk45qME87Hyz44-10" vertex="1">
          <mxGeometry x="1" width="20" height="20" relative="1" as="geometry">
            <mxPoint x="-27" y="7" as="offset" />
          </mxGeometry>
        </mxCell>
        <mxCell id="dN1lRDkk45qME87Hyz44-12" value="&amp;laquo;Annotation&amp;raquo;&lt;br/&gt;&lt;b&gt;Component&lt;/b&gt;" style="html=1;dropTarget=0;whiteSpace=wrap;" parent="1" vertex="1">
          <mxGeometry x="1478" y="-44" width="165" height="82" as="geometry" />
        </mxCell>
        <mxCell id="dN1lRDkk45qME87Hyz44-13" value="" style="shape=module;jettyWidth=8;jettyHeight=4;" parent="dN1lRDkk45qME87Hyz44-12" vertex="1">
          <mxGeometry x="1" width="20" height="20" relative="1" as="geometry">
            <mxPoint x="-27" y="7" as="offset" />
          </mxGeometry>
        </mxCell>
        <mxCell id="LYIbnzxH0JPMt6LO6bNI-14" style="edgeStyle=orthogonalEdgeStyle;rounded=0;orthogonalLoop=1;jettySize=auto;html=1;dashed=1;" parent="1" source="LYIbnzxH0JPMt6LO6bNI-6" target="V9MNRKh6ys0s9TU7Nywh-16" edge="1">
          <mxGeometry relative="1" as="geometry" />
        </mxCell>
        <mxCell id="LYIbnzxH0JPMt6LO6bNI-17" value="HTTP" style="edgeLabel;html=1;align=center;verticalAlign=middle;resizable=0;points=[];" parent="LYIbnzxH0JPMt6LO6bNI-14" vertex="1" connectable="0">
          <mxGeometry x="0.3586" relative="1" as="geometry">
            <mxPoint as="offset" />
          </mxGeometry>
        </mxCell>
        <mxCell id="LYIbnzxH0JPMt6LO6bNI-24" value="TRUSTS" style="edgeLabel;html=1;align=center;verticalAlign=middle;resizable=0;points=[];" parent="LYIbnzxH0JPMt6LO6bNI-14" vertex="1" connectable="0">
          <mxGeometry x="0.4781" y="2" relative="1" as="geometry">
            <mxPoint as="offset" />
          </mxGeometry>
        </mxCell>
        <mxCell id="LYIbnzxH0JPMt6LO6bNI-15" style="edgeStyle=orthogonalEdgeStyle;rounded=0;orthogonalLoop=1;jettySize=auto;html=1;entryX=0.25;entryY=0;entryDx=0;entryDy=0;dashed=1;" parent="1" source="LYIbnzxH0JPMt6LO6bNI-6" target="V9MNRKh6ys0s9TU7Nywh-18" edge="1">
          <mxGeometry relative="1" as="geometry" />
        </mxCell>
        <mxCell id="LYIbnzxH0JPMt6LO6bNI-16" value="HTTP" style="edgeLabel;html=1;align=center;verticalAlign=middle;resizable=0;points=[];" parent="LYIbnzxH0JPMt6LO6bNI-15" vertex="1" connectable="0">
          <mxGeometry x="0.3656" relative="1" as="geometry">
            <mxPoint as="offset" />
          </mxGeometry>
        </mxCell>
        <mxCell id="LYIbnzxH0JPMt6LO6bNI-20" style="edgeStyle=orthogonalEdgeStyle;rounded=0;orthogonalLoop=1;jettySize=auto;html=1;dashed=1;" parent="1" source="LYIbnzxH0JPMt6LO6bNI-6" target="LYIbnzxH0JPMt6LO6bNI-18" edge="1">
          <mxGeometry relative="1" as="geometry">
            <Array as="points">
              <mxPoint x="921" y="194" />
              <mxPoint x="1230" y="194" />
            </Array>
          </mxGeometry>
        </mxCell>
        <mxCell id="LYIbnzxH0JPMt6LO6bNI-23" value="HTTP" style="edgeLabel;html=1;align=center;verticalAlign=middle;resizable=0;points=[];" parent="LYIbnzxH0JPMt6LO6bNI-20" vertex="1" connectable="0">
          <mxGeometry x="0.7551" relative="1" as="geometry">
            <mxPoint as="offset" />
          </mxGeometry>
        </mxCell>
        <mxCell id="LYIbnzxH0JPMt6LO6bNI-6" value="«WSImplement»&lt;br&gt;&lt;b&gt;APIGateway&lt;/b&gt;" style="html=1;dropTarget=0;fillColor=#fff2cc;strokeColor=#d6b656;" parent="1" vertex="1">
          <mxGeometry x="831" y="59" width="180" height="80" as="geometry" />
        </mxCell>
        <mxCell id="LYIbnzxH0JPMt6LO6bNI-7" value="" style="shape=module;jettyWidth=8;jettyHeight=4;" parent="LYIbnzxH0JPMt6LO6bNI-6" vertex="1">
          <mxGeometry x="1" width="20" height="20" relative="1" as="geometry">
            <mxPoint x="-27" y="7" as="offset" />
          </mxGeometry>
        </mxCell>
        <mxCell id="LYIbnzxH0JPMt6LO6bNI-21" style="edgeStyle=orthogonalEdgeStyle;rounded=0;orthogonalLoop=1;jettySize=auto;html=1;entryX=1;entryY=0.5;entryDx=0;entryDy=0;entryPerimeter=0;dashed=1;" parent="1" source="LYIbnzxH0JPMt6LO6bNI-18" target="V9MNRKh6ys0s9TU7Nywh-21" edge="1">
          <mxGeometry relative="1" as="geometry">
            <Array as="points">
              <mxPoint x="1230" y="519" />
            </Array>
          </mxGeometry>
        </mxCell>
        <mxCell id="LYIbnzxH0JPMt6LO6bNI-18" value="«WSImplement»&lt;br&gt;&lt;b&gt;AguaService&lt;/b&gt;" style="html=1;dropTarget=0;fillColor=#fff2cc;strokeColor=#d6b656;" parent="1" vertex="1">
          <mxGeometry x="1140" y="369" width="180" height="80" as="geometry" />
        </mxCell>
        <mxCell id="LYIbnzxH0JPMt6LO6bNI-19" value="" style="shape=module;jettyWidth=8;jettyHeight=4;" parent="LYIbnzxH0JPMt6LO6bNI-18" vertex="1">
          <mxGeometry x="1" width="20" height="20" relative="1" as="geometry">
            <mxPoint x="-27" y="7" as="offset" />
          </mxGeometry>
        </mxCell>
      </root>
    </mxGraphModel>
  </diagram>
</mxfile>
